<svg xmlns="http://www.w3.org/2000/svg" xmlns:xlink="http://www.w3.org/1999/xlink" version="1.1" x="0px" y="0px" viewBox="0 0 100 125" enable-background="new 0 0 100 100" xml:space="preserve"><path d="M50,6C25.7,6,6,25.7,6,50s19.7,44,44,44s44-19.7,44-44S74.3,6,50,6z M50,91C27.4,91,9,72.6,9,50S27.4,9,50,9s41,18.4,41,41  S72.6,91,50,91z"/><path d="M63.1,36.9c0.6,0.6,1.5,0.6,2.1,0s0.6-1.5,0-2.1c-8.4-8.4-22-8.4-30.4,0c-8.4,8.4-8.4,22,0,30.4c4.2,4.2,9.7,6.3,15.2,6.3  s11-2.1,15.2-6.3c0.6-0.6,0.6-1.5,0-2.1s-1.5-0.6-2.1,0c-7.2,7.2-19,7.2-26.2,0c-7.2-7.2-7.2-19,0-26.2  C44.1,29.7,55.9,29.7,63.1,36.9z"/><text x="0" y="115" fill="#000000" font-size="5px" font-weight="bold" font-family="'Helvetica Neue', Helvetica, Arial-Unicode, Arial, Sans-serif">Created by Arthur Shlain</text><text x="0" y="120" fill="#000000" font-size="5px" font-weight="bold" font-family="'Helvetica Neue', Helvetica, Arial-Unicode, Arial, Sans-serif">from the Noun Project</text></svg>